Coordinates
version=1
nRows=17
nColumns=36
inDegrees=yes

Units are S.I. units (second, meters, Newtons, ...)
If the header above contains a line with 'inDegrees', this indicates whether rotational values are in degrees (yes) or radians (no).

endheader
time	pelvis_tilt	pelvis_list	pelvis_rotation	pelvis_tx	pelvis_ty	pelvis_tz	hip_flexion_r	hip_adduction_r	hip_rotation_r	knee_angle_r	knee_angle_r_beta	ankle_angle_r	subtalar_angle_r	mtp_angle_r	hip_flexion_l	hip_adduction_l	hip_rotation_l	knee_angle_l	knee_angle_l_beta	ankle_angle_l	subtalar_angle_l	mtp_angle_l	lumbar_extension	lumbar_bending	lumbar_rotation	arm_flex_r	arm_add_r	arm_rot_r	elbow_flex_r	pro_sup_r	arm_flex_l	arm_add_l	arm_rot_l	elbow_flex_l	pro_sup_l
      5.89583330	    -10.02563821	      0.65998533	      0.17854042	      0.45456348	      1.21969490	      0.00409867	     11.87012241	     -1.92600208	     -3.76136789	      4.84112595	      0.08449359	    -32.52266024	     -1.90933099	     -7.49999987	     17.81403184	     -6.91406415	      0.12934498	     11.68035449	      0.20386064	    -31.94380463	     -1.95079291	     -7.49999987	    -18.00133019	     -5.77081815	     -2.29941967	     -3.82883158	     -2.10441045	   -420.21130602	     90.20757659	     59.53840895	    -10.10439500	     -8.33508026	    -16.04233147	     31.53513254	     68.15997867
      5.90000000	     -9.94040785	      0.74422443	      0.17832060	      0.45535032	      1.21910417	      0.00492218	     11.51658323	     -1.95596639	     -3.88181726	      4.08649870	      0.07132286	    -32.27065660	     -1.76762353	     -7.49999987	     17.71829587	     -6.92107739	     -0.08054041	     11.55638197	      0.20169691	    -32.16726983	     -1.65733973	     -7.49999987	    -18.17847885	     -6.00991174	     -2.45222589	     -3.77273018	     -2.20537876	   -419.91639256	     89.92289913	     59.08458845	    -10.42172072	     -8.37896718	    -16.25325078	     32.12462124	     67.99932207
      5.90416670	     -9.81722675	      0.82314527	      0.15079941	      0.45568642	      1.21769552	      0.00383166	     11.15124548	     -2.02942787	     -3.96474883	      3.41772697	      0.05965059	    -32.04412911	     -1.68349476	     -7.49999987	     17.54588346	     -6.85639417	     -0.24270843	     11.42103128	      0.19933460	    -32.15607312	     -1.44630337	     -7.49999987	    -18.37861166	     -6.13327001	     -2.41582562	     -4.09107886	     -1.98914375	   -420.37693710	     90.80651931	     58.51290514	    -10.23757092	     -8.40426587	    -16.30083880	     32.15864632	     68.61690593
      5.90833330	     -9.85627369	      0.71907562	      0.15248223	      0.45431233	      1.21272296	      0.00438338	     11.16728951	     -1.92687902	     -4.17250240	      2.99520912	      0.05227626	    -31.76902840	     -1.63227536	     -7.49999987	     17.81120254	     -6.95598959	     -0.05396792	     11.62651806	      0.20292102	    -32.02075601	     -1.42458293	     -7.49999987	    -18.28198734	     -6.07693439	     -3.30674345	     -5.34739158	     -0.31665262	   -422.14885951	     98.57500735	     58.41485601	    -11.12218127	     -8.41264611	    -17.59620583	     33.31208000	     68.94885221
      5.91250000	     -9.83735014	      0.79151609	      0.08930078	      0.45551239	      1.21202546	      0.00500727	     11.06465633	     -1.98375126	     -4.20424609	      2.62805809	      0.04586827	    -31.25080828	     -1.85303625	     -7.49999987	     17.83738166	     -6.92116808	     -0.21624117	     11.60277784	      0.20250668	    -31.93267834	     -1.37049754	     -7.49999987	    -18.24017314	     -6.27189315	     -3.63260875	     -6.11587387	      0.93738636	   -424.30734705	    104.76976968	     58.68841430	    -11.31925852	     -8.33936018	    -18.82140288	     33.53824377	     68.84804223
      5.91666670	     -9.84874082	      0.76195130	      0.08360671	      0.45521127	      1.21057992	      0.00501358	     11.07904483	     -1.98004301	     -4.45191778	      2.39471820	      0.04179572	    -30.70768840	     -1.99277662	     -7.49999987	     17.97485754	     -6.93212700	     -0.27793524	     11.73032792	      0.20473284	    -31.78570987	     -1.39051718	     -7.49999987	    -18.08525555	     -6.26718385	     -3.84127263	     -7.05009287	      2.35260650	   -428.01547494	    113.83897578	     60.38100668	    -11.78426397	     -8.22955471	    -19.49780107	     34.18501146	     68.06431925
      5.92083330	     -9.71427597	      0.82676700	      0.02121781	      0.45525387	      1.21090365	      0.00535328	     10.90472540	     -2.04939871	     -4.61990723	      2.10477273	      0.03673521	    -30.45366281	     -2.13246775	     -7.49999987	     17.87885017	     -6.86139907	     -0.17154666	     11.72870683	      0.20470455	    -31.82709574	     -1.28460802	     -7.49999987	    -18.33587816	     -6.45049133	     -4.53099027	     -7.15206051	      3.48513439	   -432.08360297	    123.37877787	     61.04933034	    -11.98286368	     -8.11669795	    -21.58359444	     34.84481375	     67.45288401
      5.92500000	     -9.51576092	      0.90408567	     -0.07402941	      0.45552372	      1.21142155	      0.00580028	     10.61720517	     -2.13312439	     -4.97650376	      1.74211187	      0.03040559	    -29.91845843	     -1.64238094	     -7.49999987	     17.66897885	     -6.77705714	     -0.25973314	     11.69999533	      0.20420344	    -31.82984515	     -0.95635982	     -7.49999987	    -18.62038122	     -6.69216273	     -4.13237165	     -6.80551031	      4.02830118	   -437.21670495	    129.19369345	     62.65844519	    -11.41871662	     -8.15447201	    -23.41571554	     35.09472210	     66.42701661
      5.92916670	     -9.21665825	      0.91949929	     -0.07589611	      0.45588722	      1.20231011	      0.00558051	     10.32548162	     -2.17960993	     -5.04483895	      1.65152497	      0.02882455	    -29.71740846	     -2.14817596	     -7.49999987	     17.52196371	     -6.70715211	      0.08728731	     12.01188308	      0.20964691	    -31.46607328	     -1.06484321	     -7.49999987	    -19.20247148	     -6.76387214	     -4.50873082	     -6.18471740	      3.88457469	   -437.31978962	    129.24356597	     62.93268907	    -11.07963511	     -7.98600924	    -24.17143030	     35.06147719	     65.85178492
      5.93333330	     -9.12547860	      0.92374351	     -0.10647135	      0.45278457	      1.20324472	      0.00739755	     10.39182422	     -2.15900239	     -5.01821079	      1.62771369	      0.02840896	    -29.21214254	     -1.94819392	     -7.49999987	     17.75473951	     -6.75326709	      0.24662584	     12.43335930	      0.21700306	    -31.08688115	     -0.81772047	     -7.49999987	    -19.66174349	     -6.84112127	     -4.24684859	     -5.89029906	      4.01185271	   -435.14879131	    123.36060103	     63.11786314	    -10.34483309	     -7.98425188	    -25.55941728	     36.21750958	     64.47889192
      5.93750000	     -8.95754592	      0.83800650	     -0.14467253	      0.45231633	      1.19692075	      0.00631202	     10.42717575	     -2.11975955	     -4.82748704	      1.64150904	      0.02864974	    -28.83986090	     -1.96047011	     -7.49999987	     17.96722463	     -6.88383342	      0.54346765	     12.95569469	      0.22611953	    -30.68855688	     -0.85009838	     -7.49999987	    -19.99738241	     -6.80062971	     -4.31111718	     -5.69810767	      3.75015126	   -432.64290320	    117.62738099	     63.52209004	     -9.94745713	     -7.76387102	    -26.37786961	     36.99493169	     63.74699879
      5.94166670	     -8.97112815	      0.79262586	     -0.09263446	      0.45126776	      1.19596044	      0.00679473	     10.64224070	     -2.12860320	     -4.83784139	      1.68194391	      0.02935546	    -28.59794696	     -1.77744417	     -7.49999987	     18.37208889	     -6.93144011	      0.77192008	     13.45020096	      0.23475029	    -30.30117697	     -0.68024869	     -7.49999987	    -20.43637054	     -6.89354806	     -4.01878684	     -4.70676331	      2.16740762	   -428.28935925	    105.86955189	     62.97320107	     -9.14768309	     -7.95288112	    -25.86113587	     36.96841500	     62.85117859
      5.94583330	     -8.79978502	      0.71742715	     -0.17749832	      0.45141490	      1.19309708	      0.00611719	     10.64408693	     -2.13998916	     -4.66965995	      1.70918403	      0.02983089	    -28.47969789	     -1.69092258	     -7.49999987	     18.46594998	     -7.04254673	      0.84431913	     13.80496244	      0.24094205	    -29.95237896	     -0.48706446	     -7.49999987	    -20.54921639	     -6.76489848	     -3.93941469	     -5.43511817	      2.73851298	   -429.73305317	    109.12365504	     63.00416601	     -9.43216495	     -7.89699702	    -25.35255715	     37.73271395	     62.51677684
      5.95000000	     -8.78155363	      0.57683583	     -0.24980024	      0.44992104	      1.18730622	      0.00654463	     10.82534375	     -2.04634067	     -4.60588441	      1.91173826	      0.03336613	    -28.46378635	     -1.90572443	     -7.49999987	     18.72434512	     -7.18935870	      1.14673341	     14.26748455	      0.24901458	    -29.65832636	     -0.47475889	     -7.49999987	    -20.71369571	     -6.53172085	     -4.06849972	     -5.42173226	      3.39294393	   -432.39743063	    114.03286156	     63.00343996	     -9.50128052	     -7.48546087	    -26.27966686	     37.82541333	     62.28749924
      5.95416670	     -8.77673904	      0.50679360	     -0.24686899	      0.45022207	      1.18546068	      0.00942784	     10.89478639	     -1.97024018	     -4.47718380	      1.92415903	      0.03358291	    -28.49452219	     -1.78562374	     -7.49999987	     18.96208246	     -7.32106192	      1.38452053	     14.67189660	      0.25607290	    -29.36849495	     -0.23565365	     -7.49999987	    -20.85924980	     -6.50289010	     -4.25708501	     -5.11538352	      3.92376931	   -434.65249422	    117.77186674	     62.46041266	     -9.77982139	     -7.00664968	    -27.42815446	     37.36967715	     61.46166385
      5.95833330	     -8.92410051	      0.33407851	     -0.33166126	      0.44833994	      1.17752253	      0.00864560	     11.26583631	     -1.80408537	     -4.37999161	      2.08355940	      0.03636497	    -28.40910474	     -1.93250020	     -7.49999987	     19.46223724	     -7.55834200	      1.60734704	     15.17972257	      0.26493614	    -29.05293138	     -0.16913836	     -7.49999987	    -20.75942889	     -6.13710022	     -4.11282123	     -4.94114963	      4.54711882	   -440.19668814	    126.40372784	     62.70194187	    -10.20442147	     -6.53346150	    -27.89398819	     38.23563877	     61.18587955
      5.96250000	     -9.05310196	      0.22912441	     -0.37873930	      0.44840506	      1.17215931	      0.00975505	     11.52799405	     -1.69883507	     -4.21931819	      2.13600729	      0.03728036	    -28.37213273	     -2.11407804	     -7.49999987	     19.90236635	     -7.69678800	      1.93336179	     15.72238179	      0.27440733	    -28.50374794	      0.08742311	     -7.49999987	    -20.68845806	     -6.01631012	     -3.94676553	     -4.34184319	      4.50005800	   -446.06303212	    133.16863388	     62.64235684	    -10.03420484	     -6.57747541	    -27.37506881	     37.77094488	     60.37741599
